# xmcd
#
# Track frame offsets:
#	150
#	16056
#	29025
#	42974
#	66135
#	79941
#	93888
#	110896
#	122758
#	136087
#	149245
#	165455
#	176844
#	188326
#	204986
#	221835
#	237715
#	254116
#
# Disc length: 3569 seconds
#
# Revision: 1
# Processed by: cddbd v1.5.2PL0 Copyright (c) Steve Scherf et al.
# Submitted via: audiograbber 1.82.02
#
DISCID=100def12
DTITLE=Various Artist - Country Radio - August 2019
DYEAR=2019
DGENRE=Country
TTITLE0=Ingrid Andress - More Hearts Than Mine
TTITLE1=Dillon Carmichael - I Do For You
TTITLE2=James Barker Band - Keep It Simple
TTITLE3=Billy Ray Cyrus - Guns, Gold and Guitars
TTITLE4=Old Dominion - One Man Band
TTITLE5=Cale Dodds - I Like Where This Is Going
TTITLE6=Tanya Tucker - Wheels Of Laredo, The
TTITLE7=Laine Hardy - Flame
TTITLE8=Trisha Yearwood - Every Girl In This Town
TTITLE9=Chase Rice - Lonley If You Are
TTITLE10=Thompson Square - Masterpiece
TTITLE11=Jason Pritchett - American Made
TTITLE12=Garth Brooks (Ft. Blake Shelton) - Dive Bar
TTITLE13=Teddy Robb - Really Shouldn't Drink Around You
TTITLE14=Red Clay Union - Homegrown
TTITLE15=Zach Radcliff - I'll Stand
TTITLE16=Gone West - What Could've Been
TTITLE17=Thw - Lonely Girl
EXTD=
EXTT0=
EXTT1=
EXTT2=
EXTT3=
EXTT4=
EXTT5=
EXTT6=
EXTT7=
EXTT8=
EXTT9=
EXTT10=
EXTT11=
EXTT12=
EXTT13=
EXTT14=
EXTT15=
EXTT16=
EXTT17=
PLAYORDER=
